<svg clip-rule="evenodd" fill-rule="evenodd" stroke-linejoin="round" stroke-miterlimit="2" viewBox="0 0 500 500" xmlns="http://www.w3.org/2000/svg"><circle cx="250" cy="250" fill="#e0e0d1" r="250" stroke-width="7.8125"/><g fill-rule="nonzero" transform="scale(7.8125)"><path d="m49.865 16.135c-1.933-1.933-13.04 6.04-19.874 12.874-3.362 3.362-5.058 5.819-5.689 7.682-2.108-.205-4.403.571-5.914 2.082-.968.968-1.498 2.041-1.894 3.202-.761 2.231-1.494 5.025-4.494 7.015 2.236 2.236 10.984 2.865 15.227-1.378.449-.449.831-.967 1.144-1.529.741-1.329 1.068-2.898.925-4.38 1.864-.627 4.325-2.324 7.695-5.694 6.834-6.834 14.807-17.941 12.874-19.874z" fill="#231f20" fill-opacity=".2"/><path d="m29.991 27.009c-6.834 6.834-6.807 9.941-4.874 11.874s5.04 1.96 11.874-4.874 14.807-17.941 12.874-19.874-13.04 6.04-19.874 12.874z" fill="#e0995e"/><g><path d="m12 46.99c2.236 2.237 10.984 2.865 15.227-1.378.449-.449.831-.967 1.144-1.529-6.637-.198-10.145-2.408-11.877-4.108-.761 2.231-1.494 5.025-4.494 7.015z" fill="#c75c5c"/><path d="m27.757 36.243c-2.441-2.441-6.928-1.91-9.369.53-.968.968-1.498 2.041-1.894 3.202 1.732 1.7 5.13 6.942 11.877 4.108 1.39-2.493 1.378-5.848-.614-7.84z" fill="#4f5d73"/></g><path d="m16.495 39.975s4.022-.764 5.938 2.059c1.917 2.823 5.938 2.049 5.938 2.049l-5.205 2.875-5.208-3.792z" fill="#c75c5c"/></g></svg>