<svg clip-rule="evenodd" fill-rule="evenodd" stroke-linejoin="round" stroke-miterlimit="2" viewBox="0 0 1405 161" xmlns="http://www.w3.org/2000/svg"><path d="m160.914.404c9.046-.433 18.139-.698 27.184.168-.048 8.276 0 16.575.193 24.851-9.142.794-18.331.553-27.497.336-.289-8.443-.337-16.911.12-25.355zm253.078 0c9.141-.53 18.307-.506 27.449.096.288 8.396.192 16.767.048 25.163-9.214.313-18.428.361-27.618 0-.288-8.42-.24-16.84.121-25.259zm161.301.505c13.784.096 27.569-.024 41.353.24 1.107 46.165.169 92.378.481 138.568 4.571.312 9.166.625 13.737.962.048 6.014.048 12.028-.024 18.066-13.256 0-26.487-.024-39.718-.048-.12-4.859-.265-9.695-.457-14.53-6.111 4.571-11.114 10.802-18.163 13.977-7.434 2.213-15.348 1.973-23.022 1.684-14.29-.168-26.198-11.283-31.731-23.768-7.145-19.462-8.011-41.233-2.598-61.249 2.357-9.262 7.193-17.946 14.169-24.514 10.994-9.743 27.16-11.811 40.945-7.77 7.77 2.141 12.942 8.733 18.981 13.592.216-12.028-.193-24.033.192-36.061-4.691-.481-9.382-.674-14.097-.746-.698-6.11-.65-12.269-.048-18.403zm-17.923 60.695c-10.729 4.739-14.41 17.321-15.589 28.026-1.299 14.266-1.299 29.734 5.967 42.533 5.869 10.994 22.974 13.279 31.49 4.21 7.674-7.819 9.719-19.414 10.104-29.927.264-12.197.794-25.572-6.52-36.037-5.196-8.155-16.238-13.64-25.452-8.805zm247.424-46.069c16.383-14.578 40.753-18.283 61.297-11.427 8.204 2.574 14.073 9.166 21.242 13.568.024-4.763.145-9.502.554-14.241 7.626.168 15.228.144 22.854-.024 1.01 18.379.481 36.831.216 55.234-8.155.144-16.334.313-24.49-.264-1.828-9.695-3.584-20.545-11.475-27.353-6.639-6.351-15.925-8.973-24.947-8.372-10.681-.746-20.063 6.159-26.414 14.073-12.486 17.826-12.726 40.729-10.537 61.538 2.767 16.094 10.826 33.439 27.016 39.742 13.351 4.258 29.566 1.371 38.707-9.912 5.365-8.059 8.997-17.561 8.396-27.377-6.423-.168-12.846-.168-19.269-.072.096-6.567.12-13.111.024-19.654 20.135.048 40.295.072 60.43.048-.264 6.399-.385 12.822-.336 19.245-5.028.097-10.056.337-15.06.866.216 19.222.409 38.443-.313 57.665-7.866-.097-15.733-.097-23.575.024-.289-5.413-.602-10.826-.915-16.239-4.907 5.461-10.296 10.778-17.104 13.785-7.987 3.993-17.152 3.392-25.813 3.488-8.612-.12-17.73.505-25.572-3.681-11.908-5.966-22.325-15.636-27.954-27.809-7.458-14.939-12.053-31.563-11.115-48.378-.409-23.432 7.362-47.681 24.153-64.473zm133.395-15.083c9.07-.53 18.187-.674 27.281.096.529 8.324.505 16.647.409 24.971-9.262.553-18.548.457-27.81.144-.337-8.396-.433-16.815.12-25.211zm-937.156 3.151c24.85-.048 49.701-.168 74.576.024 16.671.048 33.752 6.736 44.553 19.751 14.362 15.925 18.861 38.178 18.62 59.059-.048 18.548-3.464 38.154-15.084 53.166-12.533 15.853-33.222 23.022-52.949 22.974-23.239.313-46.477.072-69.716.168-1.275-6.326-1.299-12.774-.457-19.149 5.557-.264 11.138-.361 16.719-.264.12-38.78.169-77.535-.024-116.315-5.557.072-11.114.048-16.671-.12-.818-6.423-.794-12.919.433-19.294zm45.443 19.294c-1.034 26.246-.192 52.516-.457 78.786.216 12.581-.601 25.211.601 37.769 12.775-1.059 26.535 1.78 38.371-4.354 7.915-3.801 13.351-11.163 17.345-18.765 5.485-10.392 5.774-22.445 6.904-33.872-.192-14.626-2.117-30.047-10.705-42.364-5.774-9.743-16.503-16.358-27.834-16.815-8.083-.482-16.166-.193-24.225-.385zm173.089 27.833c12.99-10.633 31.249-11.571 47.151-8.684 10.874 1.564 20.954 8.468 25.669 18.5 4.306 8.179 5.196 17.609 5.124 26.703-.096 17.585.048 35.171-.145 52.756 4.643.337 9.262.578 13.905.842.481 5.99.457 12.005-.048 17.995-12.558-.097-25.115-.097-37.673-.097-.168-4.715-.313-9.43-.481-14.145-5.461 5.172-10.561 11.451-17.946 13.833-7.578 1.78-15.469 1.78-23.215 1.347-10.97-.313-22.156-7.217-25.452-18.043-4.234-12.172-4.258-26.967 3.753-37.649 4.691-6.784 12.389-10.777 20.135-13.014 13.087-3.272 26.727-2.935 40.079-2.117 1.684-9.743.288-21.218-7.313-28.219-6.929-2.887-16.407-3.849-22.157 1.925-4.595 4.017-5.461 10.344-5.918 16.094-9.021.264-18.042.216-27.064.36.145-10.416 3.104-21.627 11.596-28.387zm17.2 60.672c-6.687 7.818-8.035 21.29.481 28.315 9.623 6.254 23.384.986 28.412-8.805 3.849-7.795 5.292-16.575 5.797-25.188-11.619-.024-24.73-1.612-34.69 5.678zm128.921-61.129c6.976-8.131 18.716-10.272 28.868-8.564-.265 9.214-.193 18.428.072 27.665-6.88-.769-14.338-2.213-20.785 1.083-8.709 4.523-13.448 14.434-13.833 23.961-.601 15.155-.264 30.311-.457 45.443 5.678.289 11.379.529 17.081.673.601 6.087.625 12.245-.265 18.308-19.799-.289-39.598.024-59.396-.145.048-5.99.024-12.004-.072-17.994 4.835-.265 9.646-.529 14.482-.77.625-25.909.264-51.842.192-77.752-4.835-.048-9.671-.072-14.506-.096 0-6.038-.048-12.076-.193-18.09 13.472-1.468 27.064-.698 40.584-.506.361 7.338.481 14.675.289 22.036 2.309-5.244 4.21-10.825 7.939-15.252zm275.811 13.568c6.616-10.97 17.585-19.991 30.504-21.963 18.163-3.705 39.309.89 51.289 15.853 10.657 14.001 10.946 32.284 10.994 49.076-24.61.577-49.244-.048-73.854.289.553 10.969 2.67 23.262 11.547 30.744 6.086 5.437 15.18 5.605 22.565 3.031 6.592-3.223 9.43-10.513 12.149-16.839 8.564-.337 17.152-.434 25.741-.337-.145 16.839-13.953 30.432-29.422 34.906-10.874 1.997-22.084 1.756-33.006.385-15.492-2.646-26.631-16.094-32.356-29.951-7.939-20.905-6.977-45.491 3.849-65.194zm28.243 1.853c-5.678 6.856-7.795 15.925-8.396 24.634 15.035.096 30.095.048 45.154-.024-.625-9.31-2.742-18.981-8.901-26.27-7.337-7.915-21.194-6.399-27.857 1.66zm368.79-18.62c6.857-5.894 16.407-6.231 24.995-5.581-.24 8.925-.457 17.874.097 26.823-5.918.265-11.933-.313-17.754.914-5.269 2.069-9.864 5.966-12.847 10.802-3.945 7.313-4.234 15.901-4.354 24.008-.072 11.932 0 23.841-.048 35.749 5.629.24 11.259.433 16.936.529.649 5.99.77 12.052.746 18.091-19.775.866-39.574-.097-59.372.505-.698-6.159-.746-12.389-.385-18.572 4.763-.265 9.526-.505 14.313-.722-.312-25.909-.12-51.818-.144-77.727-4.739 0-9.478 0-14.218-.024-.072-6.183-.072-12.365.073-18.524 13.327-.241 26.679-.192 40.03-.024.169 6.76.12 13.52.337 20.256 4.162-5.317 5.533-12.75 11.595-16.503zm64.954-4.258c19.726-5.028 43.615-1.083 56.966 15.444 13.833 17.754 16.527 42.388 10.73 63.727-4.162 16.406-16.287 31.466-32.742 36.566-11.571 1.78-23.551 1.973-35.099.192-10.512-3.392-20.544-9.767-26.366-19.365-13.544-21.218-14.073-49.341-3.512-71.906 6.062-11.956 17.393-20.617 30.023-24.658zm9.478 18.379c-9.43 3.849-13.881 13.953-15.926 23.263-2.357 12.004-2.477 24.586.674 36.446 2.261 8.348 7.554 16.455 15.589 20.184 6.712 1.9 15.059 1.732 20.063-3.825 9.31-8.276 11.187-21.411 11.355-33.199.265-12.293-.12-26.029-8.468-35.94-5.292-6.809-15.108-11.067-23.287-6.929zm121.03-18.235c14.338-5.076 32.308-1.852 42.147 10.296 5.678 6.712 5.702 16.022 5.774 24.346-.217 20.665.072 41.329-.241 61.97 4.595.337 9.19.698 13.809 1.059.337 6.062.241 12.172-.289 18.235-17.73-.145-35.435-.289-53.141.024-.77-6.111-.794-12.293-.529-18.428 4.113-.216 8.227-.433 12.341-.673.914-22.06 1.082-44.241-.602-66.277-2.02-13.255-21.386-16.864-29.373-6.976-6.832 7.53-6.327 18.451-6.712 27.954.144 15.156-.409 30.311.289 45.467 4.282.193 8.588.361 12.918.553 0 6.087-.096 12.197-.361 18.284-18.307-.169-36.59-.024-54.873-.024-.337-6.063-.337-12.149-.072-18.236 4.739-.24 9.478-.505 14.217-.769.674-25.813.578-51.65.048-77.439-4.715-.096-9.43-.12-14.121-.048-.216-6.279-.24-12.558-.168-18.837 13.327-.361 26.679-.529 40.006.337-.024 5.1.048 10.176.289 15.276 5.846-5.701 10.537-13.351 18.644-16.094zm89.66.818c14.602-4.186 30.888-4.547 45.154 1.179 12.077 4.835 19.294 17.513 20.112 30.119 1.78 21.531.481 43.182.794 64.761 4.594.457 9.189.818 13.832 1.082.842 5.918.794 11.933-.24 17.851-12.486-.121-24.947.024-37.409-.097-.048-4.739-.144-9.478-.361-14.217-6.639 5.966-12.798 14.241-22.421 14.939-9.237.866-18.788 1.107-27.809-1.179-6.904-2.838-13.496-7.914-15.95-15.18-4.643-12.461-4.931-27.617 3.152-38.779 4.667-7.025 12.653-10.874 20.496-13.255 12.967-3.2 26.462-2.791 39.694-1.973 1.323-9.719 1.01-21.579-7.386-28.195-6.832-4.162-16.262-3.488-22.276 1.829-4.018 4.498-5.028 10.585-5.654 16.358-9.021-.264-18.018-.216-27.015.096-.987-15.3 8.443-30.672 23.287-35.339zm5.316 67.768c-8.035 8.324-7.097 26.102 4.811 30.504 6.496 1.01 13.785.12 18.813-4.499 8.925-7.818 10.777-20.544 10.922-31.779-11.572-.072-24.851-2.02-34.546 5.774zm-1183.31-67.84c14.17-.77 28.387-.674 42.557-.289-.217 32.14-.241 64.28-.024 96.396l12.629.577c.337 6.159.433 12.293-.096 18.428-18.235-.169-36.494-.048-54.729-.193 0-6.014-.024-12.004-.096-17.994 4.763-.265 9.502-.554 14.241-.818.674-25.813.337-51.626.193-77.439-4.763-.12-9.527-.217-14.266-.289-.096-6.134-.24-12.269-.409-18.379zm253.703-.505c14.073-.048 28.123-.048 42.196.192.264 32.068.048 64.136.144 96.203l12.919 1.371c-.097 5.87-.121 11.764-.072 17.634-18.572.265-37.144.12-55.716 0 .024-5.918 0-11.86-.12-17.778 5.076-.409 10.152-.818 15.228-1.251-.794-25.861.769-51.818-.818-77.655-4.475-.433-10.008 1.804-13.833-1.179-.649-5.822-.144-11.692.072-17.537zm523.789.745c14.001-1.563 28.17-.481 42.244-.505 1.01 32.044.168 64.136.481 96.203 4.041.289 8.107.602 12.173.89-.385 5.75 2.526 13.015-1.035 17.827-17.874.817-35.82.216-53.719.288.048-5.942-.024-11.884-.144-17.85 4.763-.337 9.55-.698 14.338-1.01.649-25.861.385-51.722.12-77.583-4.811 0-9.575-.025-14.338-.049.072-6.086.048-12.148-.12-18.211z" fill="#323232"/></svg>