<svg clip-rule="evenodd" fill-rule="evenodd" stroke-linejoin="round" stroke-miterlimit="2" viewBox="0 0 1399 168" xmlns="http://www.w3.org/2000/svg"><path d="m873.432 54.6c-.002.303-.014.606-.037.91-.047 3.284-1.334 6.428-3.607 8.799-2.273 2.37-5.362 3.789-8.637 3.972-3.267-.034-6.428-1.168-8.973-3.221-2.541-2.052-4.321-4.902-5.047-8.089-5.137 1.266-9.521 7.473-13.511 20.64v39.813c0 1.661 1.462 2.57 9.126 3.122h3.276l.552 3.123h-49.446l.553-3.123h2.369c5.293-.356 7.307-.909 7.307-3.122v-47.839c0-11.348-1.461-12.809-7.662-14.628l-3.673-.909v-2.375l37.955-10.596-.357 27.042h.553c5.846-17.198 13.31-27.237 24.607-27.237 1.959-.149 3.922.127 5.761.812 1.84.679 3.514 1.754 4.899 3.143 1.389 1.39 2.46 3.064 3.144 4.903.173.469.319.947.44 1.43l36.152-10.093-.357 27.042h.557c5.842-17.198 13.306-27.237 24.642-27.237 1.954-.144 3.917.136 5.752.824 1.835.684 3.501 1.759 4.882 3.148 1.385 1.385 2.451 3.059 3.131 4.895.539 1.46.825 3.001.847 4.551 8.185-8.166 25.457-13.418 38.749-13.418 20.971 0 30.093 8.973 29.383 29.77l-1.461 32.182c-.395 7.117 2.37 9.844 6.36 9.844 2.566 0 5.489-2.927 7.898-5.655l.58.644c2.657-7.305 10.867-12.666 19.719-15.233-10.426-3.637-17.533-10.592-17.533-23.206 0-14.589 14.61-28.308 36.138-28.308 7.86-.106 15.63 1.712 22.627 5.298l26.66-2.927-1.461 11.862-18.244-2.728v.553c2.031 1.767 3.654 3.955 4.759 6.415 1.104 2.456 1.665 5.124 1.64 7.817 0 16.251-14.972 27.675-37.048 27.675-4.223.034-8.441-.323-12.601-1.066-2.014.365-3.862 1.355-5.281 2.829-1.419 1.479-2.332 3.365-2.617 5.396 0 4.389 4.185 6.364 13.863 6.364 5.646 0 18.957-.514 25.908-.514 16.233 0 27.649 9.135 27.649 23.724 0 19.769-21.37 36.372-51.343 36.372-23.699 0-35.548-6.05-35.548-18.265 0-9.686 10.783-14.627 21.723-18.821-10.783-1.304-19.509-9.134-19.509-17.907l-.396-.281c0-.364.014-.726.04-1.083-5.458 6.535-13.679 14.568-22.357 14.568-8.926 0-15.52-6.011-16.786-17.359l.042-.157h-.556c-8.57 10.043-16.23 17.355-26.46 17.355-5.09.14-10.022-1.746-13.727-5.243-3.701-3.501-5.867-8.323-6.02-13.417 0-14.232 12.953-22.81 46.882-31.945l.196-5.14c.552-12.415-6.203-22.101-18.443-22.101-6.755 0-9.678 1.818-9.678 3.637 0 1.818 5.846 6.049 5.846 11.347-.196 3.051-1.585 5.897-3.875 7.924-2.286 2.022-5.281 3.055-8.331 2.872-6.18 0-11.389-3.056-12.019-8.713-2.134 1.797-4.8 2.863-7.61 3.02-3.271-.034-6.436-1.164-8.985-3.216-2.554-2.052-4.338-4.903-5.073-8.094-5.098 1.266-9.479 7.473-13.511 20.64v39.813c0 1.661 1.462 2.57 9.126 3.122h3.276l.557 3.123h-49.373l.434-3.123h2.37c5.294-.356 7.308-.909 7.308-3.122v-47.839c0-11.348-1.462-12.809-7.66-14.628l-1.425-.357zm206.366 13.838c-.028-15.708-4.212-23.562-11.14-23.562-6.95 0-10.583 6.207-10.583 23.362 0 15.818 3.947 22.853 10.583 22.853 7.678 0 11.118-5.969 11.14-22.496zm17.338 75.79c0-9.33-6.203-12.257-19.157-13.166-8.08-.387-16.182-.268-24.25.356-5.29 2.414-6.751 7.155-6.751 13.719 0 9.886 9.478 17.355 25.355 17.355 14.772 0 24.803-7.906 24.803-18.264zm-107.899-39.376 1.104-25.742c-16.786 4.589-21.923 10.796-21.923 19.535 0 7.312 3.951 11.858 10.587 11.858 2.01-.162 3.96-.748 5.723-1.721 1.763-.977 3.302-2.315 4.509-3.93zm-516.367 5.298-.356-.357c-6.556 8.778-17.338 16.447-28.121 16.447-18.602 0-33.018-17.356-33.018-39.814 0-29.06 22.987-44.953 46.526-44.953 5.025-.136 10.037.599 14.811 2.175v-19.333c0-9.173-1.264-11.15-6.201-12.454l-6.912-2.017.356-2.174 39.219-7.67v104.139c0 8.934 1.106 10.952 6.398 12.414l5.095 1.266-.356 2.371-37.599 6.207zm0-4.55v-45.306c-5.451-8.978-12.402-14.79-17.142-14.79-10.031 0-15.798 14.237-15.798 33.963 0 18.821 7.9 32.145 19.511 32.145 5.034-.259 9.785-2.405 13.31-6.012zm33.768-20.121c-.102-5.969 1-11.9 3.241-17.432 2.241-5.531 5.574-10.553 9.801-14.768 4.226-4.21 9.258-7.524 14.794-9.746 5.537-2.218 11.464-3.297 17.426-3.165 21.525 0 32.663 13.719 32.663 27.399-.001 1.844-.186 3.683-.553 5.493 0 0-42.181-.552-49.29-.909v6.207c0 19.174 10.032 32.501 26.066 32.501 4.701.081 9.324-1.198 13.312-3.687 3.989-2.494 7.171-6.088 9.162-10.35l2.172 1.067c-6.359 18.268-19.156 28.507-39.219 28.507-22.275 0-39.496-17.159-39.496-41.117zm53.556-16.608c0-11.861-2.37-23.719-10.782-23.719-7.109 0-13.31 8.382-14.613 24.076zm76.345 51.675 7.306-.713c5.49-.553 7.9-1.819 7.9-3.28v-103.229h-3.278c-15.799.909-27.015 15.182-31.597 27.397l-1.816 5.693h-6.241l3.95-36.925h109.007l1.462 36.53h-5.293l-2.014-5.651c-4.384-11.862-16.233-27.044-30.649-27.044h-3.633v103.586c0 1.461 1.066 2.014 9.281 2.923l5.688.713.513 3.123h-61.099zm122.476-11.861h-.553c-8.571 10.043-16.273 17.355-26.462 17.355-5.089.14-10.024-1.746-13.726-5.243-3.702-3.501-5.867-8.323-6.022-13.417 0-14.232 12.955-22.81 46.921-31.945v-5.14c.553-12.415-6.201-22.101-18.445-22.101-6.753 0-9.637 1.818-9.637 3.637 0 1.818 5.806 6.049 5.806 11.347-.193 3.051-1.586 5.897-3.873 7.924-2.288 2.022-5.284 3.055-8.331 2.872-6.596 0-11.849-3.48-11.849-9.886 0-13.519 25.357-23.206 43.446-23.206 21.011 0 30.134 8.973 29.384 29.77l-1.461 32.182c-.355 7.117 2.37 9.844 6.398 9.844 2.567 0 5.45-2.927 7.899-5.655l1.817 2.018c-5.292 6.76-14.613 17.16-24.487 17.16-8.926 0-15.482-6.011-16.746-17.359zm-.868-3.833 1.105-25.742c-16.786 4.589-21.881 10.796-21.881 19.535 0 7.312 3.95 11.858 10.585 11.858 2.003-.162 3.948-.748 5.705-1.725 1.758-.973 3.287-2.311 4.486-3.926zm357.194-21.234c0-23.719 19-42.936 46.726-42.936s44.55 19.374 44.55 42.227c0 24.114-18.8 43.488-46.721 43.488-27.926 0-44.555-19.374-44.555-42.579zm62.445 1.661c0-21.548-3.675-32.34-8.412-37.085-1.07-1.071-2.358-1.899-3.773-2.435-1.419-.531-2.935-.752-4.444-.65-11.296 0-17.338 14.237-17.338 36.691 0 22.458 3.475 32.539 8.217 37.638 1.151 1.062 2.502 1.886 3.972 2.421 1.47.536 3.034.778 4.597.706 11.136 0 17.181-15.185 17.181-37.286zm31.911 35.267h2.566c5.294-.356 7.269-.909 7.269-3.122v-47.839c0-11.348-1.423-12.809-7.664-14.628l-3.632-.913.199-2.371 37.953-10.596-.396 15.814h.396c9.283-7.669 20.261-15.814 31.596-15.814 2.817 0 5.604.591 8.178 1.725 2.579 1.139 4.89 2.8 6.794 4.878 4.342 4.35 6.198 12.771 6.198 21.706v48.233c0 1.305.91 2.018 8.927 3.123h2.013l.553 3.127h-47.236l.553-3.127h2.923c6.203-.353 6.203-1.657 6.203-3.123v-42.897c0-13.876-5.846-17.356-14.42-17.356-4.457.005-8.824 1.262-12.597 3.637v56.459c0 1.661.948 2.371 7.15 2.927h2.881l.395 3.123h-47.392zm147.242-11.861h-.514c-8.612 10.043-16.272 17.355-26.464 17.355-5.086.14-10.023-1.746-13.723-5.243-3.705-3.501-5.867-8.323-6.025-13.417 0-14.232 12.954-22.81 46.883-31.945l.195-5.14c.553-12.415-6.198-22.101-18.442-22.101-6.756 0-9.679 1.818-9.679 3.637 0 1.818 5.846 6.049 5.846 11.347-.191 3.051-1.584 5.897-3.874 7.924-2.286 2.022-5.281 3.055-8.327 2.872-6.598 0-12.049-3.48-12.049-9.886 0-13.519 25.355-23.206 43.445-23.206 21.014 0 30.097 8.973 29.387 29.77l-1.461 32.182c-.357 7.117 2.366 9.844 6.398 9.844 2.528 0 5.447-2.927 7.898-5.655l1.814 2.018c-5.289 6.76-14.61 17.16-24.446 17.16-8.964 0-15.52-6.011-16.824-17.359zm-.87-3.833 1.104-25.742c-16.786 4.589-21.88 10.796-21.88 19.535 0 7.312 3.951 11.858 10.587 11.858 2.001-.166 3.943-.756 5.701-1.729 1.755-.977 3.285-2.311 4.488-3.922zm-1053.62 19.54h-86.516v-6.357h.058v-8.491c-8.526 9.879-16.162 17.041-26.279 17.041-10.979 0-19.944-8.243-19.944-18.678 0-14.293 12.994-22.901 46.997-32.05l.174-3.552c.512-12.451-6.219-22.156-18.467-22.156-6.789 0-9.709 1.827-9.709 3.654 0 1.286 5.839 6.051 5.839 11.356 0 5.685-5.11 10.815-12.248 10.815-6.585 0-12.074-3.493-12.074-9.895 0-13.562 25.505-23.266 43.798-23.266 21.038 0 30.193 8.973 29.462 29.858v45.495c0 1.637.03 2.003 7.71 2.923l1.649.19.151.871.155-.871 2.381-.19c5.299-.365 7.3-.92 7.3-3.113v-55.36c0-11.356-1.461-12.817-7.68-14.615l-3.666-.921.176-2.382 38.061-.117-.364 22.361h.554c5.841-17.216 10.381-23.545 21.725-23.545 8.424 0 12.862 6.153 12.862 15.682 0 4.633-5.301 12.817-12.25 12.817-8.058 0-12.074-5.495-14.087-11.356-5.125 1.287-8.76 12.964-8.76 17.538v39.898c0 1.652 1.459 2.558 9.154 3.113l3.284.19zm-86.458-19.057.058-1.433v-.087l1.022-24.305c-16.79 4.575-21.899 10.83-21.899 19.599 0 7.322 4.015 11.911 10.6 11.911 4.38 0 7.84-2.938 10.219-5.685zm-215.418 15.944 6.585-.745c5.84-.906 7.869-1.827 7.869-3.288v-100.55c0-1.461-1.27-2.017-9.504-2.923l-4.76-.73-.555-3.113 58.925-.19c41.521 0 64.588 20.884 64.588 56.603 0 31.319-28.367 58.064-65.319 58.064h-58.398l.569-3.128zm90.387-51.546c-.017-36.037-12.267-55.609-37.682-55.609h-8.234v106.527h12.439c21.384-.19 33.456-23.037 33.477-50.845zm33.185 51.546 2.569-.19c5.3-.365 7.3-.92 7.3-3.113v-55.316c0-11.356-1.46-12.817-7.679-14.615l-3.665-.921.175-2.382 37.697-.117v73.527c0 1.651 1.094 2.017 8.76 2.923l1.635.19.554 3.113h-47.857zm200.481 0 2.555-.19c5.315-.365 7.3-.92 7.3-3.113v-55.36c0-11.356-1.459-12.817-7.694-14.615l-3.65-.921.176-2.382 37.697-.117v73.571c0 1.651 1.094 2.017 8.758 2.923l1.651.19.554 3.113h-47.901zm6.147-98.24c-.052-3.148.834-6.24 2.544-8.881 1.712-2.642 4.17-4.713 7.063-5.95 2.891-1.237 6.085-1.583 9.174-.995 3.091.588 5.935 2.085 8.172 4.298 2.234 2.214 3.763 5.044 4.384 8.13.622 3.086.313 6.288-.892 9.196-1.203 2.909-3.244 5.393-5.864 7.135-2.619 1.742-5.697 2.663-8.842 2.646-2.058.022-4.1-.366-6.008-1.139-1.907-.773-3.642-1.917-5.106-3.366-1.464-1.448-2.626-3.173-3.419-5.073-.795-1.901-1.204-3.941-1.206-6.001zm-201.066 0c-.052-3.148.834-6.241 2.546-8.883 1.711-2.642 4.17-4.713 7.063-5.949 2.893-1.237 6.088-1.582 9.178-.993 3.09.59 5.934 2.088 8.17 4.303 2.235 2.215 3.761 5.046 4.382 8.133.62 3.087.308 6.289-.897 9.198-1.206 2.908-3.249 5.391-5.871 7.131s-5.702 2.659-8.847 2.639c-2.057.02-4.097-.369-6.003-1.143s-3.64-1.918-5.102-3.367c-1.461-1.448-2.622-3.172-3.415-5.072s-1.202-3.938-1.204-5.997z" fill="#5798bd"/></svg>