<svg clip-rule="evenodd" fill-rule="evenodd" stroke-linejoin="round" stroke-miterlimit="2" viewBox="0 0 1500 300" xmlns="http://www.w3.org/2000/svg"><path d="m208.848 70.375c9.046-.433 18.139-.698 27.185.168-.049 8.276 0 16.576.192 24.851-9.142.794-18.331.553-27.497.337-.289-8.444-.337-16.912.12-25.356zm253.078 0c9.141-.529 18.307-.505 27.449.096.288 8.396.192 16.768.048 25.164-9.214.312-18.428.361-27.617 0-.289-8.42-.241-16.84.12-25.26zm161.301.505c13.784.096 27.569-.024 41.353.241 1.107 46.165.169 92.378.482 138.567 4.57.313 9.165.625 13.736.962.048 6.014.048 12.029-.024 18.067-13.255 0-26.487-.024-39.718-.048-.12-4.86-.265-9.695-.457-14.531-6.11 4.571-11.114 10.802-18.163 13.977-7.433 2.214-15.348 1.973-23.022 1.684-14.29-.168-26.198-11.282-31.731-23.768-7.145-19.462-8.011-41.233-2.598-61.248 2.357-9.262 7.193-17.947 14.169-24.514 10.994-9.743 27.16-11.812 40.945-7.771 7.77 2.142 12.942 8.733 18.981 13.593.216-12.029-.193-24.033.192-36.062-4.691-.481-9.382-.673-14.097-.745-.698-6.111-.65-12.269-.048-18.404zm-17.923 60.696c-10.729 4.739-14.41 17.32-15.588 28.026-1.299 14.265-1.299 29.734 5.966 42.532 5.87 10.994 22.974 13.279 31.49 4.21 7.674-7.818 9.719-19.414 10.104-29.927.265-12.196.794-25.572-6.519-36.037-5.197-8.155-16.239-13.64-25.453-8.804zm247.425-46.069c16.382-14.579 40.752-18.283 61.296-11.427 8.204 2.574 14.074 9.165 21.242 13.568.025-4.763.145-9.503.554-14.242 7.626.169 15.228.145 22.854-.024 1.01 18.38.481 36.831.216 55.235-8.155.144-16.334.312-24.49-.265-1.828-9.695-3.584-20.545-11.475-27.353-6.639-6.351-15.925-8.973-24.947-8.371-10.681-.746-20.063 6.158-26.414 14.073-12.485 17.826-12.726 40.728-10.537 61.537 2.767 16.094 10.826 33.439 27.016 39.742 13.352 4.258 29.566 1.371 38.707-9.911 5.365-8.059 8.998-17.562 8.396-27.377-6.423-.169-12.846-.169-19.269-.072.096-6.568.12-13.111.024-19.655 20.135.048 40.295.072 60.43.048-.264 6.4-.384 12.823-.336 19.246-5.028.096-10.056.337-15.06.866.217 19.221.409 38.443-.313 57.664-7.866-.096-15.733-.096-23.575.024-.289-5.413-.602-10.825-.914-16.238-4.908 5.461-10.297 10.777-17.105 13.784-7.987 3.994-17.152 3.392-25.813 3.489-8.612-.121-17.73.505-25.572-3.681-11.908-5.966-22.325-15.637-27.954-27.81-7.458-14.939-12.053-31.562-11.114-48.378-.409-23.431 7.361-47.681 24.153-64.472zm133.395-15.084c9.069-.529 18.187-.673 27.28.096.529 8.324.505 16.648.409 24.971-9.262.554-18.548.457-27.81.145-.337-8.396-.433-16.816.121-25.212zm-937.157 3.152c24.851-.049 49.701-.169 74.576.024 16.671.048 33.752 6.736 44.553 19.75 14.362 15.926 18.861 38.178 18.62 59.06-.048 18.548-3.464 38.154-15.083 53.165-12.534 15.854-33.223 23.023-52.95 22.974-23.238.313-46.477.073-69.716.169-1.275-6.327-1.299-12.774-.457-19.149 5.557-.265 11.138-.361 16.719-.265.121-38.78.169-77.535-.024-116.315-5.557.073-11.114.049-16.671-.12-.818-6.423-.794-12.918.433-19.293zm45.443 19.293c-1.034 26.246-.192 52.516-.457 78.786.217 12.582-.601 25.212.602 37.769 12.774-1.058 26.534 1.781 38.37-4.354 7.915-3.801 13.352-11.162 17.345-18.764 5.485-10.393 5.774-22.445 6.904-33.872-.192-14.627-2.117-30.047-10.705-42.364-5.774-9.743-16.503-16.359-27.834-16.816-8.083-.481-16.166-.192-24.225-.385zm173.089 27.834c12.991-10.633 31.25-11.571 47.151-8.685 10.874 1.564 20.954 8.468 25.669 18.5 4.306 8.179 5.196 17.61 5.124 26.703-.096 17.586.048 35.171-.144 52.757 4.643.336 9.261.577 13.904.842.482 5.99.457 12.004-.048 17.994-12.557-.096-25.115-.096-37.673-.096-.168-4.715-.312-9.43-.481-14.146-5.461 5.173-10.561 11.452-17.946 13.833-7.578 1.78-15.469 1.78-23.215 1.347-10.97-.312-22.156-7.217-25.452-18.042-4.234-12.173-4.258-26.968 3.753-37.649 4.691-6.784 12.389-10.778 20.135-13.015 13.087-3.272 26.727-2.935 40.079-2.117 1.684-9.743.289-21.218-7.313-28.219-6.929-2.886-16.407-3.849-22.157 1.925-4.595 4.018-5.461 10.344-5.918 16.094-9.021.265-18.042.217-27.064.361.145-10.417 3.104-21.627 11.596-28.387zm17.2 60.671c-6.687 7.819-8.035 21.29.482 28.315 9.622 6.255 23.383.986 28.411-8.805 3.849-7.794 5.292-16.575 5.797-25.187-11.619-.024-24.73-1.612-34.69 5.677zm128.921-61.128c6.976-8.131 18.716-10.272 28.868-8.564-.265 9.213-.192 18.427.072 27.665-6.88-.77-14.338-2.213-20.785 1.082-8.708 4.523-13.448 14.435-13.833 23.961-.601 15.156-.264 30.312-.457 45.443 5.678.289 11.379.53 17.081.674.601 6.086.625 12.245-.265 18.307-19.799-.289-39.597.024-59.396-.144.048-5.99.024-12.005-.072-17.995 4.835-.264 9.646-.529 14.482-.77.625-25.909.264-51.842.192-77.751-4.835-.048-9.671-.072-14.506-.096 0-6.039-.048-12.077-.192-18.091 13.471-1.468 27.064-.698 40.583-.505.361 7.337.482 14.674.289 22.036 2.31-5.245 4.21-10.826 7.939-15.252zm275.811 13.568c6.616-10.97 17.586-19.991 30.504-21.964 18.163-3.705 39.309.89 51.289 15.853 10.657 14.001 10.946 32.285 10.994 49.076-24.61.578-49.244-.048-73.854.289.553 10.97 2.67 23.263 11.547 30.745 6.086 5.436 15.18 5.605 22.565 3.031 6.592-3.224 9.431-10.513 12.149-16.84 8.564-.337 17.152-.433 25.741-.337-.145 16.84-13.953 30.432-29.422 34.907-10.873 1.996-22.084 1.756-33.006.384-15.492-2.646-26.631-16.094-32.356-29.95-7.939-20.906-6.976-45.492 3.849-65.194zm28.243 1.852c-5.678 6.856-7.795 15.926-8.396 24.634 15.035.097 30.095.048 45.155-.024-.626-9.31-2.743-18.981-8.901-26.27-7.338-7.914-21.195-6.399-27.858 1.66zm368.79-18.62c6.857-5.894 16.407-6.23 24.996-5.581-.241 8.925-.458 17.874.096 26.823-5.918.265-11.932-.312-17.754.915-5.269 2.068-9.863 5.966-12.847 10.801-3.945 7.313-4.234 15.902-4.354 24.009-.072 11.932 0 23.84-.048 35.748 5.629.241 11.259.433 16.936.529.65 5.991.77 12.053.746 18.091-19.775.866-39.574-.096-59.372.505-.698-6.158-.746-12.389-.385-18.572 4.763-.264 9.526-.505 14.314-.721-.313-25.909-.121-51.819-.145-77.728-4.739 0-9.478 0-14.217-.024-.073-6.182-.073-12.365.072-18.524 13.327-.24 26.679-.192 40.03-.024.169 6.76.121 13.52.337 20.256 4.162-5.316 5.533-12.75 11.595-16.503zm64.954-4.258c19.726-5.028 43.615-1.082 56.966 15.445 13.833 17.754 16.527 42.388 10.73 63.726-4.162 16.407-16.287 31.466-32.742 36.566-11.571 1.781-23.551 1.973-35.098.193-10.513-3.392-20.545-9.767-26.367-19.366-13.544-21.218-14.073-49.34-3.512-71.906 6.062-11.956 17.393-20.616 30.023-24.658zm9.478 18.38c-9.43 3.849-13.881 13.953-15.925 23.262-2.358 12.005-2.478 24.587.673 36.447 2.262 8.347 7.554 16.454 15.589 20.183 6.712 1.901 15.06 1.732 20.063-3.825 9.31-8.275 11.187-21.41 11.355-33.198.265-12.293-.12-26.03-8.468-35.941-5.292-6.808-15.107-11.066-23.287-6.928zm121.03-18.235c14.338-5.076 32.308-1.853 42.147 10.296 5.678 6.712 5.702 16.022 5.774 24.345-.216 20.665.072 41.33-.24 61.971 4.594.336 9.189.697 13.808 1.058.337 6.062.241 12.173-.289 18.235-17.729-.144-35.435-.289-53.141.024-.77-6.11-.794-12.293-.529-18.427 4.113-.217 8.227-.433 12.341-.674.914-22.06 1.082-44.24-.602-66.276-2.02-13.256-21.386-16.864-29.373-6.977-6.832 7.53-6.327 18.452-6.712 27.954.145 15.156-.409 30.312.289 45.468 4.282.192 8.588.36 12.918.553 0 6.086-.096 12.197-.36 18.283-18.308-.168-36.591-.024-54.874-.024-.337-6.062-.337-12.149-.072-18.235 4.739-.241 9.478-.505 14.217-.77.674-25.813.578-51.65.049-77.439-4.716-.096-9.431-.12-14.122-.048-.216-6.279-.24-12.558-.168-18.836 13.327-.361 26.679-.53 40.006.336-.024 5.1.048 10.176.289 15.277 5.846-5.702 10.537-13.352 18.644-16.094zm89.66.817c14.602-4.185 30.889-4.546 45.154 1.179 12.077 4.836 19.294 17.514 20.112 30.119 1.78 21.531.481 43.182.794 64.761 4.594.457 9.189.818 13.832 1.083.842 5.918.794 11.932-.24 17.85-12.486-.12-24.947.024-37.409-.096-.048-4.739-.144-9.479-.36-14.218-6.64 5.966-12.799 14.242-22.421 14.939-9.238.866-18.789 1.107-27.81-1.178-6.904-2.839-13.496-7.915-15.95-15.18-4.643-12.462-4.931-27.617 3.152-38.78 4.667-7.024 12.654-10.873 20.496-13.255 12.967-3.2 26.463-2.791 39.694-1.973 1.323-9.719 1.01-21.579-7.386-28.194-6.832-4.162-16.262-3.489-22.276 1.828-4.018 4.499-5.028 10.585-5.654 16.359-9.021-.265-18.018-.217-27.015.096-.987-15.3 8.444-30.673 23.287-35.34zm5.316 67.768c-8.035 8.324-7.097 26.102 4.812 30.504 6.495 1.011 13.784.121 18.812-4.498 8.925-7.819 10.777-20.545 10.922-31.779-11.572-.072-24.851-2.021-34.546 5.773zm-1183.31-67.84c14.17-.77 28.387-.673 42.557-.288-.217 32.139-.241 64.279-.024 96.395l12.63.578c.336 6.158.433 12.293-.097 18.427-18.235-.168-36.494-.048-54.729-.192 0-6.015-.024-12.005-.096-17.995 4.763-.264 9.502-.553 14.242-.818.673-25.813.336-51.626.192-77.439-4.763-.12-9.526-.216-14.266-.288-.096-6.135-.24-12.269-.409-18.38zm253.703-.505c14.074-.048 28.123-.048 42.196.193.265 32.067.048 64.135.144 96.203l12.919 1.371c-.096 5.87-.12 11.764-.072 17.634-18.572.264-37.144.12-55.716 0 .024-5.918 0-11.86-.12-17.778 5.076-.409 10.152-.818 15.228-1.251-.794-25.861.77-51.819-.818-77.656-4.475-.433-10.008 1.805-13.833-1.179-.649-5.821-.144-11.691.072-17.537zm523.789.746c14.001-1.564 28.171-.481 42.244-.505 1.01 32.043.168 64.135.481 96.203 4.041.288 8.107.601 12.173.89-.385 5.749 2.526 13.015-1.035 17.826-17.874.818-35.82.216-53.719.289.049-5.942-.024-11.884-.144-17.85 4.763-.337 9.551-.698 14.338-1.011.649-25.861.385-51.722.12-77.583-4.811 0-9.574-.024-14.338-.048.073-6.087.048-12.149-.12-18.211z" fill="#323232"/></svg>