<svg clip-rule="evenodd" fill-rule="evenodd" stroke-linejoin="round" stroke-miterlimit="2" viewBox="0 0 1500 300" xmlns="http://www.w3.org/2000/svg"><path d="m0 0h1500v300h-1500z" fill="#004a99"/><path d="m374.9 206.069c8.307-5.696 8.938-9.027 8.938-22.876v-116.464c0-14.931-2.756-19.066-13.093-24.12v-.459h52.374l.23 141.043c0 14.702.689 17.459 10.337 23.661v.459h-127.031v-.459c6.432-3.905 9.188-7.351 9.188-12.405 0-4.364-.918-8.04-3.216-12.634l-9.418-19.985h-54.671l-7.581 16.539c-1.608 3.906-2.756 8.04-2.756 11.946 0 6.891 3.905 12.863 12.174 16.539v.459h-38.362v-.459c8.04-5.284 14.013-12.864 20.445-26.647l60.644-129.558h.919l64.09 131.855c6.332 13.101 9.758 18.523 16.789 23.565zm-99.486-103.734-23.89 53.063h48.699zm523.082 103.902c8.748-5.8 9.392-9.06 9.392-23.044v-60.644c0-15.161-1.379-18.147-11.716-24.119v-.46h51.226v35.835c5.283-19.755 15.391-37.673 34.916-37.673 14.472 0 23.661 9.878 23.661 22.972 0 16.08-10.797 24.809-22.742 24.809-3.675 0-6.661-1.149-8.04-2.298 4.365-1.837 6.892-5.972 7.121-10.796 0-7.81-5.053-12.404-13.782-12.404-11.256 0-21.134 11.485-21.134 30.781v33.997c0 14.702 5.054 18.377 16.999 23.661v.459h-134.382v-.459c6.432-3.905 9.189-7.351 9.189-12.405 0-4.364-.919-8.04-3.216-12.634l-9.419-19.985h-54.671l-7.581 16.539c-1.608 3.906-2.756 8.04-2.756 11.946 0 6.891 3.905 12.863 12.174 16.539l-.229.459h-38.362v-.459c8.04-5.284 14.012-12.864 20.444-26.647l60.644-129.558h.919l64.32 131.855c6.402 13.247 9.834 18.643 17.025 23.733zm-99.722-103.902-23.89 53.063h48.699zm328.123 96.863c-.808-2.506-1.242-5.242-1.242-8.194 0-14.242 11.256-24.35 24.809-28.255-13.783-5.972-21.134-17.228-21.134-30.552 0-20.904 18.148-36.065 50.078-36.065 14.931 0 27.106 3.216 35.375 9.419 4.365-7.581 10.567-17.688 22.282-17.688 11.486 0 18.607 6.432 18.607 16.539 0 13.094-11.026 17.458-20.214 17.458v-.459c1.837-2.297 2.756-4.824 2.756-7.81 0-5.973-3.446-11.027-11.026-11.027-4.135 0-7.351 1.838-10.107 4.595 8.729 5.972 13.323 14.701 13.323 24.809 0 20.903-18.147 36.064-50.537 36.064-9.878 0-18.147-1.148-25.498-3.905-5.283 1.838-9.188 5.054-9.188 9.648 0 5.284 3.675 8.04 10.566 8.04h47.78c25.728 0 42.727 11.256 42.727 32.619 0 29.633-33.308 43.186-70.062 43.416-25.958 0-55.131-5.283-55.131-23.431 0-9.188 9.877-16.309 28.025-17.228-10.054-2.08-18.277-7.823-21.707-16.635-5.795 5.318-15.475 8.595-25.155 8.595-17.917 0-26.876-7.581-28.943-19.526 0-.918-.46-4.594-.46-5.742-3.675 14.701-16.769 24.809-35.605 24.809-17.229 0-32.62-8.73-32.62-27.566 0-25.039 24.58-29.863 50.997-34.687l16.769-2.986v-21.363c0-11.256-4.135-22.282-16.769-22.282-10.337 0-15.621 7.351-15.621 16.769 0 8.959 3.676 13.553 10.567 13.553 1.378 0 2.527-.23 4.135-.689-4.365 8.729-12.864 13.093-23.661 13.093-11.485 0-20.903-7.121-20.903-18.606 0-16.999 19.066-28.025 46.631-28.025 36.065 0 54.901 11.026 54.901 38.591 0 13.324-.459 26.877-.459 42.727 0 14.242 1.838 22.282 12.634 22.282.976 0 2.037-.085 3.08-.305zm-54.535-51.84-9.419 2.297c-14.012 2.757-19.985 11.256-19.985 25.499 0 11.255 4.595 18.377 12.864 18.377 10.337 0 16.31-10.108 16.31-22.742zm107.735-48.01c-8.959 0-12.175 11.486-12.175 32.62 0 21.363 3.446 32.389 12.175 32.389 9.188 0 12.404-11.026 12.404-32.389 0-21.134-3.445-32.62-12.404-32.62zm-3.446 154.367c23.431 0 42.037-7.351 41.808-21.133 0-10.108-6.892-14.472-19.985-14.472h-36.524c-11.716 0-19.756 4.824-19.756 15.85 0 13.323 15.621 19.755 34.457 19.755zm-561.647-87.061 2.757.919c-2.987 21.134-13.094 41.808-39.97 41.808-20.445 0-35.376-11.945-35.146-37.214l.459-68.684h-11.945v-2.527c22.742-4.824 40.659-19.066 48.699-41.348h2.297v38.362h33.079l-1.149 5.513h-31.93v69.603c0 11.256 4.595 17.688 13.324 17.688 10.107 0 16.769-8.959 19.525-24.12zm62.482 42.727c-33.308 0-60.644-22.512-60.644-56.969 0-34.227 27.336-56.739 60.644-56.739s60.644 22.512 60.644 56.739c0 34.457-27.336 56.969-60.644 56.969zm0-3.676c13.553 0 18.607-18.377 18.836-53.063 0-34.457-5.053-52.834-18.836-52.834s-18.836 18.147-18.836 52.834c0 34.686 5.053 53.063 18.836 53.063zm619.764-163.555h38.362c-8.729 18.147-24.349 33.079-47.321 45.024h-1.378c7.351-13.094 9.648-29.633 10.337-45.024zm7.581 167.231c-33.309 0-60.644-22.512-60.644-56.969 0-34.227 27.335-56.739 60.644-56.739 33.308 0 60.644 22.512 60.644 56.739 0 34.457-27.336 56.969-60.644 56.969zm0-3.676c13.553 0 18.836-18.377 18.836-53.063 0-34.457-5.054-52.834-18.836-52.834-13.783 0-18.837 18.147-18.837 52.834 0 34.686 5.054 53.063 18.837 53.063zm59.036-107.735h51.226v28.714c5.283-19.755 19.525-30.781 38.132-30.781 24.12 0 35.146 16.769 35.146 38.132v49.158c0 14.702.689 17.459 10.337 23.661v.459h-60.185v-.459c9.648-6.202 10.337-9.189 10.337-23.661v-50.307c0-10.107-4.594-18.377-14.931-18.377-11.026 0-18.836 9.419-18.836 29.174v39.51c0 14.702.689 17.459 10.337 23.661v.459h-60.185v-.459c9.648-6.202 10.337-9.189 10.337-23.661v-60.644c0-15.161-1.378-18.147-11.715-24.119zm-1153.16 60.185c-4.364 0-7.121-3.446-6.891-7.581 0-8.269 5.054-15.62 12.634-15.62 3.446 0 5.743 2.067 6.202 4.824l2.757-11.026c.23-.919.23-1.608.23-2.068 0-1.378-.69-2.067-2.068-2.756h11.026l-7.35 29.633c-.23.229-.23.689-.23.918 0 .919.689 1.608 1.838 1.608.689 0 1.607-.229 2.526-.689-2.297 2.297-4.824 2.987-6.891 2.987-3.446 0-5.283-2.068-5.283-4.824 0-.23 0-.919.229-1.608-1.837 3.216-4.364 6.202-8.729 6.202zm1.149-7.581c0 2.757.919 4.135 2.756 4.135 2.527 0 4.824-2.756 5.743-6.432l1.149-4.824c.229-1.148.459-2.067.459-2.986 0-2.527-1.148-3.905-2.986-3.905-4.135 0-7.121 8.499-7.121 14.012zm29.862 7.581c-5.742 0-9.648-3.676-9.648-8.959 0-7.581 6.662-14.472 15.391-14.472 4.365 0 7.351 2.068 7.351 5.054 0 5.053-6.202 6.891-14.472 7.121-.23.689-.23 1.378-.23 2.067 0 4.135 2.527 5.973 5.514 5.973 2.756 0 4.594-1.149 6.661-3.446h.23c-2.297 4.365-5.743 6.662-10.797 6.662zm5.743-22.971c-2.756 0-6.202 5.513-7.121 11.026 5.284-.689 8.499-4.595 8.499-8.959 0-1.378-.459-2.067-1.378-2.067zm7.351 16.539 5.973-23.431c.229-.919.229-1.608.229-2.067 0-1.379-.689-2.068-2.067-2.757h11.026l-7.351 29.633c-.229.23-.229.689-.229.919 0 1.149.689 1.838 1.837 1.838.689 0 1.608-.23 2.527-.689-2.297 2.297-4.824 2.986-6.891 2.986-3.446 0-5.284-2.068-5.284-4.824 0-.46 0-.919.23-1.608zm-53.523-37.673c2.527-1.608 3.216-2.757 3.905-5.743l5.284-20.904c.229-.918.459-1.837.459-2.526 0-1.379-.459-2.068-1.608-2.987h13.783c9.418 0 15.62 4.135 15.62 12.175 0 13.094-11.026 19.985-23.201 19.985zm11.256-1.149h2.527c9.188 0 14.472-10.566 14.472-21.133 0-5.054-2.068-8.729-7.351-8.729h-2.297zm31.7-28.714c0-2.526 2.068-4.594 4.824-4.594 2.527 0 4.365 1.838 4.365 4.135 0 2.527-2.068 4.594-4.824 4.594-2.527 0-4.365-1.837-4.365-4.135zm7.121 7.121-4.364 18.148c-.23.229-.23.689-.23.919 0 .918.689 1.608 1.838 1.608.689 0 1.378-.23 2.297-.69-2.297 2.298-4.824 2.987-6.891 2.987-3.446 0-5.284-1.838-5.284-4.595 0-.459 0-.918.23-1.608l2.986-11.945c.23-1.148.46-1.837.46-2.297 0-1.148-.46-1.608-1.608-2.527zm25.728 8.959-2.297 9.189c-.689 2.527 1.149 3.445 4.135 2.067-2.297 2.297-4.824 2.986-6.892 2.986-3.675 0-5.283-2.067-5.283-5.053 0-.23 0-.689.23-1.149-1.838 3.446-4.135 6.202-8.5 6.202-4.134 0-6.891-3.216-6.891-8.04 0-8.039 6.202-15.62 14.013-15.62 3.675 0 5.513 1.838 6.431 4.135 1.838-2.297 4.595-3.676 7.581-4.135-.919 2.757-1.838 6.202-2.527 9.418zm-14.472 10.797c2.297 0 4.365-3.216 5.513-6.662l1.379-5.513c.229-1.378.459-2.527.459-3.446 0-2.297-1.149-3.445-2.757-3.445-3.905 0-7.35 9.418-7.35 14.931 0 2.756.919 4.135 2.756 4.135zm33.768-11.256c1.149-.23 2.067-1.149 1.838-2.757 0-1.378-.689-2.067-2.068-2.067-2.527 0-5.053 3.446-6.432 8.729l-2.527 10.107h-8.039l4.364-17.688c.23-1.148.459-1.837.459-2.297 0-1.148-.459-1.608-1.607-2.527h10.566l-1.837 8.04c1.837-4.364 4.594-8.499 8.499-8.499 2.527 0 4.364 1.608 4.364 4.135 0 3.216-2.297 5.513-5.283 5.513-.919 0-1.838-.23-2.297-.689zm11.945-15.621c0-2.526 2.067-4.594 4.824-4.594 2.527 0 4.365 1.838 4.365 4.135 0 2.527-2.068 4.594-4.824 4.594-2.527 0-4.365-1.837-4.365-4.135zm7.351 7.121-4.594 18.148c-.23.229-.23.689-.23.919 0 .918.689 1.608 1.838 1.608.689 0 1.608-.23 2.526-.69-2.297 2.298-4.824 2.987-6.891 2.987-3.446 0-5.283-1.838-5.283-4.595 0-.459 0-.918.229-1.608l2.987-11.945c.229-1.148.459-1.837.459-2.297 0-1.148-.459-1.608-1.608-2.527zm.459 13.783c0-8.269 6.892-14.242 14.702-14.242 5.972 0 10.337 3.446 10.337 9.418 0 8.27-6.891 14.242-14.702 14.242-5.743 0-10.337-3.445-10.337-9.418zm17.229-9.188c0-2.527-.46-4.365-2.527-4.365-2.297 0-4.365 3.905-5.743 9.189-1.149 3.675-1.608 6.661-1.608 8.729 0 2.527.689 4.364 2.527 4.364 2.297 0 4.364-3.905 5.743-9.188 1.148-3.676 1.608-6.662 1.608-8.729z" fill="#fff"/></svg>