<svg clip-rule="evenodd" fill-rule="evenodd" stroke-linejoin="round" stroke-miterlimit="2" viewBox="0 0 1500 300" xmlns="http://www.w3.org/2000/svg"><g fill-rule="nonzero"><path d="m283.924 251.459v-19.087h13.988c8.516 0 13.241-2.587 13.241-18.085v-100.495c0-11.059-2.987-14.439-15.98-14.439h-11.249v-19.106h164.87v68.168h-18.516c-3.729-35.111-6.722-49.056-40.184-49.056h-43.995v53.735h13.24c15.016 0 21.744-7.774 21.744-28.693v-3.374h18.51v86.259h-18.516v-6.163c0-20.926-6.722-28.942-21.738-28.942h-13.24v60.197h49.968c23 0 31.96-14.762 34.205-53.202h18.522v72.283zm177.552 0v-19.087h16.228c7.083 0 11.927-2.587 11.927-11.389v-110.514c0-7.736-3.329-11.097-13.443-11.097h-14.705v-19.125h92.816v19.112h-14.205c-11.128 0-14.965 2.6-14.965 11.636v121.624h41.351c26.126 0 32.454-14.718 34.775-54.762h18.751v73.602zm209.259 0v-19.087h16.151c5.834 0 10.863-2.055 10.863-8.802v-115.453c0-6.709-5.029-8.764-10.863-8.764h-16.151v-19.106h98.961c37.882 0 59.569 17.85 59.569 46.995 0 31.781-22.702 46.747-56.545 46.747h-39.6v49.588c0 6.747 6.297 8.801 12.086 8.801h16.151v19.081zm62.372-96.589h22.962c23.741 0 36.366-7.476 36.366-27.33 0-19.905-10.108-28.174-36.373-28.174h-22.955zm64.452 96.589h77.698v-19.087h-19.404c-4.756 0-7.99-1.065-7.99-4.642 0-2.34.508-3.906.99-5.422l8.192-25.865h56.513l8.224 25.865c.495 1.516.99 3.862.99 6.208 0 2.55-1.985 3.862-7.692 3.862h-19.696v19.081h168.504v-19.087h-14.439c-8.433 0-12.206-4.388-12.206-12.657v-107.978c0-9.784 7.736-12.384 15.681-12.384h10.964v-19.106h-88.11v19.112h13.944c9.721 0 12.682 5.137 12.682 11.636v112.093c0 6.703-3.963 9.29-14.191 9.29h-6.202c-13.19 0-21.636-1.801-26.145-13.976l-49.746-138.155h-34.877l-47.54 138.155c-4.223 12.175-12.948 13.976-26.138 13.976zm108.814-74.09h-42.08l19.943-62.264h.444l21.687 62.264zm286.286-98.2h14.293v65.917h-17.73c-5.898-28.536-21.421-48.929-50.749-48.929-22.942 0-32.321 6.291-32.321 23.57 0 39.227 109.924 9.956 109.924 82.898 0 41.599-30.558 55.175-65.079 55.175-18.472 0-36.944-8.37-51.237-20.653l-5.402 15.409h-16.792v-70.869h18.263c3.437 35.06 23.633 53.874 58.637 53.874 21.661 0 32.023-10.748 32.023-23.278 0-44.724-109.918-10.996-109.918-85.783 0-36.893 31.287-52.594 61.141-52.594 18.719 0 34.484 9.15 46.817 18.313z" fill="#212020"/><path d="m1063.89 42.2v19.024h-88.776z" fill="#016ca2"/></g></svg>