<svg clip-rule="evenodd" fill-rule="evenodd" stroke-linejoin="round" stroke-miterlimit="2" viewBox="0 0 1404 216" xmlns="http://www.w3.org/2000/svg"><path d="m406.588 43.114c5.9 16.1 6.3 32.4 1.6 48.7-6.4 21.2-20.6 34.7-41.7 41.1-8 2.5-16.3 3.6-24.7 3.6h-47.3c-.6 0-1.2.1-1.8 0-1.2-.1-1.9.2-1.7 1.6.1.6 0 1.3 0 2v68.3c0 3 .4 2.8-2.8 2.8h-41.5c-1.2.1-1.8-.3-1.7-1.6.1-.6 0-1.3 0-2v-202c0-3-.4-2.8 2.8-2.8 31.7 0 63.4-.1 95.1 0 10.8 0 21.2 2 31.2 6.3 15.7 6.7 26.6 18 32.5 34zm-40.9 36.4c1.3-5.7 1.4-11.5.4-17.3-1.8-11.4-8.6-18.4-19.6-21.5-5.1-1.5-10.5-2.1-15.8-2.2-12.4-.1-24.9-.1-37.3-.1-2.7 0-2.4-.2-2.4 2.6v57.5c0 2.6-.2 2.4 2.3 2.4 12.5-.1 25.1 0 37.6-.2 5.9 0 11.8-.8 17.5-2.7 9.1-3.1 15.1-9.1 17.3-18.5zm664.2-76.7c2.9 0 2.6-.3 2.7 2.7v202.5c0 3.2 0 3.2-3.3 3.2h-33.6c-2.8 0-2.7.4-2.7-2.6v-14.6c0-.5.1-1-.4-1.3-.5-.1-.6.4-.8.7-7.2 11-17.4 17.6-30.1 20.3-13.9 3-27.7 2.2-40.9-3.3-13.7-5.7-23.6-15.6-30.6-28.4-6.3-11.6-9.6-24.1-10.8-37.2-1.1-11.7-.4-23.3 2.4-34.7 3.3-13.9 9.4-26.3 19.6-36.5 9.2-9.2 20.4-14.7 33.3-16.6 12.2-1.8 24.1-.9 35.4 4.2 7.8 3.5 14.4 8.6 19.3 15.6.3.5.7 1 1.2 1.6.7-1 .4-2 .4-2.9v-69.5c0-3.7-.5-3.2 3.3-3.2h35.6zm-41.3 158.3c2.9-8.3 3.9-16.8 3.8-26 .1-8.2-.9-16.6-3.8-24.8-2.6-7.1-6.4-13.3-12.9-17.5-9.8-6.3-20.5-6.8-31.3-3.2-9.8 3.2-15.7 10.4-19.4 19.7-4 10-4.9 20.5-4.3 31.2.4 7.3 1.8 14.5 4.8 21.2 5.9 13.4 15.3 21.8 30.6 22.2 8 .3 15.5-1.5 21.8-6.7 5.2-4.3 8.5-9.8 10.7-16.1zm-887.2-101.4c18.5 5.9 31.6 18.1 40.1 35.4 7.6 15.5 10.1 31.9 9.4 49 0 1.4-.4 2-1.8 1.8-.6-.1-1.3 0-2 0h-105.1c.2 6.3 1.2 12.1 3.3 17.7 3.9 10.2 11.1 16.7 21.8 19.1 9.9 2.2 19.5 1.9 28.8-2.4 5.8-2.7 11.2-6.3 14-12.2 1.5-3.2 3.3-3.8 6.4-3.7 9.5.2 19.1.1 28.6.1h2.8c.6 1 0 1.6-.2 2.3-3.6 10.5-8.7 20.2-16.4 28.3-8.9 9.4-19.9 15.4-32.6 18.1-17.1 3.6-34.1 3.2-50.6-2.7-18.7-6.6-32.4-19.2-40.1-37.5-10.3-24.5-10.6-49.3.4-73.6 10.4-23 28.6-36.9 53.4-41.7 13.4-2.6 26.8-2.2 39.8 2zm-59.2 59.7h66.9c-.6-6.4-3.8-15.3-7.3-20.3-3.5-4.9-8.1-8.3-13.9-10-5.7-1.7-11.4-1.9-17.3-1.2-16.2 2-28 15-28.4 31.5zm502.8-25.9c6 11.4 9.1 23.7 9.9 36.6.4 5.1.6 10.3.1 15.8h-108.5c-.6 2.4.1 4.5.3 6.7.6 4.5 1.7 8.8 3.5 12.9 4 9 10.8 14.8 20.4 17.1 11.8 2.8 23.2 2 33.7-4.6 4.7-3 8.8-6.7 10.9-12.1.4-1.1 1.1-1.4 2.2-1.4h31.8c.9 0 1.9-.1 3 .3-1.6 5.4-3.8 10.4-6.4 15.3-10.6 19.7-27 31.1-49.1 34.3-14.3 2.1-28.4 1.5-42.3-3-21.4-7-36.3-21.1-44-42.2-8.4-23-8.4-46.2 1.5-68.8 10.4-23.6 28.7-37.8 53.9-42.7 14.5-2.9 28.9-2.1 42.8 3 16.4 6.1 28.3 17.3 36.3 32.8zm-98.4 25.9h66.9c-1.3-6.9-3.1-13.5-6.9-19.4-3.9-6.1-9.4-9.9-16.5-11.5-4.8-1.1-9.7-1.2-14.7-.7-16.5 1.7-26.1 13.6-28.5 27.2-.3 1.4-.8 2.8-.3 4.4zm376-59.2c21.9 6.8 37.2 21.2 45 42.7 7.9 21.6 8 43.7.1 65.4-8.1 22.3-23.9 36.9-46.8 43.4-19.7 5.7-39.4 5.2-58.6-2.3-19.9-7.8-33.1-22.3-40.3-42.3-3.3-9.1-4.8-18.6-4.9-28.3 0-1-.1-1.9-.2-2.9.1-13.9 2.4-27.3 8.6-39.8 9.4-19 24.5-31.1 44.8-36.7 17.4-4.8 35-4.6 52.3.8zm4.3 102.9c3.6-8.6 4.8-17.8 4.7-27.9.1-8.1-.9-16.8-4.1-25.2-4-10.4-10.7-18-21.7-21.1-3.3-.9-6.7-1.4-10.1-1.4-8.7-.1-16.7 1.9-23.4 7.9-4.8 4.3-7.9 9.8-10 15.8-2.7 7.7-3.6 15.7-3.7 23.8-.1 8.5.8 16.9 3.6 25 2.2 6.4 5.4 12.1 10.6 16.5 7 5.9 15.2 7.8 24.2 7.4 14.4-.6 24.3-7.6 29.9-20.8zm525.2-102.866c21.9 6.8 37.2 21.2 45 42.7 7.9 21.6 8 43.7.1 65.4-8.1 22.3-23.9 36.9-46.8 43.4-19.7 5.7-39.4 5.2-58.6-2.3-19.9-7.8-33.1-22.3-40.3-42.3-3.3-9.1-4.8-18.6-4.9-28.3 0-1-.1-1.9-.2-2.9.1-13.9 2.4-27.3 8.6-39.8 9.4-19 24.5-31.1 44.8-36.7 17.4-4.8 35-4.6 52.3.8zm4.3 102.9c3.6-8.6 4.8-17.8 4.7-27.9.1-8.1-.9-16.8-4.1-25.2-4-10.4-10.7-18-21.7-21.1-3.3-.9-6.7-1.4-10.1-1.4-8.7-.1-16.7 1.9-23.4 7.9-4.8 4.3-7.9 9.8-10 15.8-2.7 7.7-3.6 15.7-3.7 23.8-.1 8.5.8 16.9 3.6 25 2.2 6.4 5.4 12.1 10.6 16.5 7 5.9 15.2 7.8 24.2 7.4 14.4-.6 24.3-7.6 29.9-20.8zm-117-9.734c.9 0 1.9-.2 3.2.4-1.4 10.5-4.3 20.3-9.6 29.3-8.1 13.8-19.8 23.2-34.9 28-19.7 6.3-39.6 6.3-58.9-1.2-22.1-8.6-36-25.1-42.5-47.8-2-7.1-2.9-14.3-3.1-21.6-.3-12.8 1.3-25.4 5.9-37.4 9.7-25.3 27.9-40.6 54.6-45.4 17-3 33.7-1.8 49.8 4.7 15 6 26.5 16 33 31.1 2.4 5.6 3.8 11.6 4.4 17.7.2 2.2.1 2.3-2.1 2.3h-36.2c-2.1 0-2.1 0-2.6-2.1-.8-3.6-1.9-7.1-3.8-10.3-3-5.2-7.3-9-13-11.1-7.4-2.8-15-3.3-22.6-1.1-9.5 2.7-15.8 9.3-19.9 18-4.7 9.9-6.3 20.4-6.1 31.2.1 7.9 1.3 15.6 4.1 23.1 1.5 4 3.5 7.8 6.1 11.2 6.2 8 14.6 11.7 24.6 11.6 6.8-.1 13.3-1.6 18.9-5.7 7.3-5.3 11-12.7 12.9-21.2.9-3.7.8-3.7 4.5-3.7zm-1038.9 54.7c0 3.6.6 3.2-3.2 3.2h-35.6c-2.9 0-2.6.3-2.6-2.7v-202.4c0-3.3 0-3.3 3.2-3.3h37c.9 0 1.2.3 1.2 1.2zm458.8-114.8c0 1 .3 2-.3 3-4.5-.8-9-1.2-13.6-1.3-10.3-.1-19.9 1.9-27.9 8.9-5.7 4.9-9.1 11.3-11.2 18.4-1.6 5.6-2.4 11.3-2.6 17.2-.5 19.4-.1 38.7-.2 58.1-.1 4-.1 8 0 12 0 1.4-.4 1.8-1.8 1.8-12.6 0-25.3-.1-37.9 0-1.5 0-2-.5-1.8-1.9v-145.7c0-3.6-.7-3.5 3.4-3.5h34.5c1.2-.1 1.7.4 1.7 1.7v25.8c1.1-.5 1.1-1.4 1.5-2.1 10.2-19 26.1-28.9 47.7-29.5 2.1-.1 4.2.2 6.3.8 2.2.6 2.2.5 2.2 2.9zm426.7 116.1c.1 1.3-.3 2-1.8 1.8-.5-.1-1.1 0-1.7 0h-34.7c-3.5 0-3.5 0-3.5-3.6v-144.1c0-3.4-.3-3.2 3.1-3.2h35.6c3.6 0 3 .2 3 3zm-378-.8c0 .4-.1.8.2 1.1.1.9-.2 1.5-1.3 1.4h-39.2c-.9.1-1.2-.3-1.2-1.2v-146.5c0-3.4-.6-3.2 3.3-3.2h35.3c3.1 0 2.9-.2 2.9 2.8zm66.4-167c-.3 0-.6-.1-.9-.2-.2-.9.5-1.4.9-2 8.3-12.4 16.6-24.6 24.9-37 1.2-1.8 2.4-2.4 4.5-2.4 13.3.1 26.5.1 39.7.1.9 0 2-.4 2.8.3-.2.8-.8 1.2-1.3 1.6-13.7 12.7-27.4 25.3-41.1 38-1 .9-2 1.6-3.5 1.6zm272.6-4.6c-2.6 0-2.6-.1-2.6-2.5v-29.4c0-2.3.1-2.3 2.2-2.3h37.3c2.1 0 2.2-.1 2.2 2.3v29.4c0 2.5 0 2.5-2.6 2.5zm-378.4 0c-2.1 0-2.2-.1-2.2-2 0-10.1.1-20.2 0-30.3 0-1.4.4-1.8 1.8-1.8h37.7c2.1 0 2.1 0 2.1 2v30c0 2-.1 2.1-2.1 2.1z" fill="#b60e1f"/></svg>