<svg clip-rule="evenodd" fill-rule="evenodd" stroke-linejoin="round" stroke-miterlimit="2" viewBox="0 0 1500 300" xmlns="http://www.w3.org/2000/svg"><path d="m1199.3 87.046c40.265 0 69.345 26.844 69.345 64.871 0 35.472-30.678 64.552-68.386 64.552h-44.42c-1.917 2.237-9.267 7.669-18.534 7.669-12.143 0-21.73-5.752-28.441-17.256l-19.493-35.152c-5.433-10.545-10.866-15.658-22.05-16.297v50.171l16.617 3.515v7.35h-99.064v-7.35l15.658-3.835-14.38-39.625h-41.543l-15.019 39.945 13.421 3.515v7.35h-40.584v-7.35l13.422-3.515 44.738-109.29-1.917-5.433c5.432-2.876 11.824-7.989 17.576-15.019l49.532 133.896 19.493-3.835v-107.692l-16.937-3.515v-7.35h52.089c23.008 0 43.141 8.628 43.141 30.678 0 18.534-17.257 32.276-36.43 32.595v1.917c13.741 1.598 20.452 6.711 26.204 17.576l14.38 25.565c2.876 5.113 8.628 13.741 18.535 13.741 5.432 0 8.628-2.876 10.545-5.432v-106.095l-15.019-3.515v-7.35zm-123.031 59.119c15.019 0 24.286-12.463 24.925-25.245.32-12.783-8.947-23.009-22.689-23.009h-11.184v48.254zm-128.145 9.587h34.513l-16.937-46.017zm249.578 49.852c29.4 0 47.934-20.772 47.615-53.687 0-33.873-17.896-54.006-47.295-54.006h-18.855v107.693zm-942.388 0 14.061 3.515v7.35h-53.047v-7.35l15.658-3.835-14.38-39.625h-41.543l-15.019 39.945 13.421 3.515v7.35h-39.625l2.556-7.35 9.587-3.515 44.739-109.29-1.918-5.433c5.433-2.876 11.824-7.989 17.576-15.019zm-76.055-49.852h34.512l-16.936-46.017zm-38.028 27.802-12.783 32.915h-80.849v-7.35l14.381-3.515v-107.693l-14.381-3.515v-7.35h51.45v7.35l-14.381 3.515v108.332h23.968l27.801-25.246zm224.971-96.508h45.698v7.35l-15.978 3.515h-.64l-50.81 123.032h-5.432l-51.13-123.032-16.298-3.515v-7.35h57.521v7.35l-16.937 3.515 35.791 86.602 33.554-86.602-15.339-3.515zm509.701 0h43.141v7.35l-15.019 3.515-1.278 79.571c-.959 28.761-23.009 45.378-51.45 45.378s-50.491-17.895-51.449-45.378v-79.571l-14.7-3.515v-7.35h52.088v7.031l-15.019 3.515v78.932c.639 21.41 15.019 33.234 34.832 33.234 19.493 0 34.193-12.782 34.832-31.637.64-15.978-.639-80.21-.639-80.21l-15.339-3.515v-7.35zm562.109 118.238 14.381 3.835v7.35h-53.048v-7.35l15.659-3.835-14.38-39.625h-41.543l-15.02 39.945 13.422 3.515v7.35h-82.767v-7.031l15.02-3.515v-107.692l-15.659-3.835v-7.35h54.006v7.35l-15.978 3.515v108.332l10.226 3.195 7.67-3.195 44.738-109.929-1.917-5.433c5.432-2.876 11.824-7.989 17.576-15.019zm-75.736-49.532h34.513l-16.937-46.017zm-764.072-68.706h43.78v7.35l-15.658 3.515-1.279 123.032h-6.071l-92.673-108.971.958 93.632 16.618 3.515v7.35h-85.004v-7.35l15.659-3.835-14.381-39.625h-41.543l-15.019 39.945 13.422 3.515v7.35h-40.585v-7.35l13.422-3.515 44.739-109.29-1.918-5.433c5.433-2.876 11.824-7.989 17.576-15.019l48.893 133.576 15.978-3.834 1.278-107.053-1.278-.64-15.658-3.515v-7.35h34.512l80.849 95.869-.958-84.684-15.659-3.835zm-176.078 68.706h34.512l-16.936-46.017zm312.211 1.917v-7.669h49.213v6.072l-12.143 4.793v56.243h-3.835l-11.504-7.67c-11.505 8.948-26.204 13.742-41.863 13.742-38.667 0-67.108-28.761-67.108-69.026 0-38.667 32.595-71.262 72.541-71.262 13.421 0 27.482 4.474 35.791 8.948l7.989-9.907 3.834 1.918v40.584l-4.154 2.557c-6.072-21.411-23.648-35.152-43.141-35.152-30.039 0-48.573 28.441-48.254 61.356 0 34.193 18.855 59.119 48.254 59.119 10.865 0 22.05-3.835 29.08-9.587v-41.543z"/></svg>