<svg clip-rule="evenodd" fill-rule="evenodd" stroke-linejoin="round" stroke-miterlimit="2" viewBox="0 0 1405 149" xmlns="http://www.w3.org/2000/svg"><path d="m1151.7 11.185c40.264 0 69.344 26.843 69.344 64.871 0 35.471-30.677 64.551-68.386 64.551h-44.419c-1.917 2.237-9.267 7.67-18.534 7.67-12.144 0-21.731-5.752-28.441-17.257l-19.494-35.151c-5.432-10.546-10.865-15.659-22.049-16.298v50.171l16.617 3.515v7.35h-99.064v-7.35l15.658-3.834-14.38-39.626h-41.543l-15.02 39.945 13.422 3.515v7.35h-40.584v-7.35l13.421-3.515 44.739-109.29-1.917-5.433c5.432-2.876 11.823-7.989 17.575-15.019l49.533 133.896 19.493-3.834v-107.693l-16.937-3.515v-7.35h52.089c23.008 0 43.14 8.628 43.14 30.678 0 18.535-17.256 32.276-36.43 32.595v1.918c13.742 1.598 20.452 6.711 26.204 17.576l14.381 25.565c2.876 5.113 8.628 13.741 18.534 13.741 5.433 0 8.628-2.876 10.546-5.433v-106.094l-15.02-3.515v-7.35h57.522zm-123.032 59.119c15.02 0 24.287-12.463 24.926-25.246.32-12.782-8.948-23.008-22.689-23.008h-11.184v48.254zm-128.144 9.586h34.513l-16.937-46.016zm249.578 49.852c29.399 0 47.934-20.771 47.614-53.686 0-33.874-17.895-54.006-47.295-54.006h-18.854v107.692zm-942.388 0 14.061 3.515v7.35h-53.047v-7.35l15.658-3.834-14.38-39.626h-41.543l-15.02 39.945 13.422 3.515v7.35h-39.626l2.557-7.35 9.587-3.515 44.738-109.29-1.917-5.433c5.433-2.876 11.824-7.989 17.576-15.019zm-76.056-49.852h34.513l-16.937-46.016zm-38.027 27.802-12.783 32.915h-80.849v-7.35l14.38-3.515v-107.692l-14.38-3.515v-7.35h51.449v7.35l-14.38 3.515v108.331h23.967l27.802-25.245zm224.971-96.507h45.697v7.35l-15.978 3.515h-.639l-50.81 123.031h-5.433l-51.13-123.031-16.297-3.515v-7.35h57.521v7.35l-16.937 3.515 35.791 86.601 33.554-86.601-15.339-3.515v-7.35zm509.701 0h43.141v7.35l-15.019 3.515-1.279 79.571c-.958 28.76-23.008 45.377-51.449 45.377s-50.491-17.895-51.45-45.377v-79.571l-14.699-3.515v-7.35h52.088v7.03l-15.019 3.515v78.932c.639 21.411 15.019 33.234 34.832 33.234 19.493 0 34.193-12.782 34.832-31.636.639-15.978-.639-80.21-.639-80.21l-15.339-3.515v-7.35zm562.109 118.238 14.38 3.834v7.35h-53.047v-7.35l15.659-3.834-14.381-39.626h-41.543l-15.019 39.945 13.422 3.515v7.35h-82.767v-7.03l15.02-3.515v-107.693l-15.659-3.834v-7.35h54.006v7.35l-15.978 3.515v108.331l10.226 3.196 7.669-3.196 44.739-109.929-1.917-5.433c5.432-2.876 11.823-7.989 17.576-15.019zm-75.736-49.533h34.513l-16.937-46.016zm-764.072-68.705h43.78v7.35l-15.659 3.515-1.278 123.031h-6.072l-92.672-108.971.958 93.632 16.617 3.515v7.35h-85.003v-7.35l15.659-3.834-14.381-39.626h-41.543l-15.019 39.945 13.421 3.515v7.35h-40.584v-7.35l13.422-3.515 44.738-109.29-1.917-5.433c5.432-2.876 11.824-7.989 17.576-15.019l48.893 133.577 15.978-3.835 1.278-107.053-1.278-.639-15.659-3.515v-7.35h34.513l80.849 95.868-.959-84.684-15.658-3.834v-7.35zm-176.079 68.705h34.513l-16.937-46.016zm312.212 1.918v-7.67h49.213v6.072l-12.144 4.793v56.243h-3.834l-11.505-7.669c-11.504 8.948-26.204 13.741-41.862 13.741-38.667 0-67.108-28.761-67.108-69.025 0-38.667 32.595-71.263 72.54-71.263 13.422 0 27.483 4.474 35.791 8.948l7.989-9.906 3.835 1.917v40.584l-4.154 2.557c-6.072-21.411-23.648-35.152-43.141-35.152-30.039 0-48.573 28.441-48.254 61.356 0 34.193 18.854 59.119 48.254 59.119 10.865 0 22.05-3.835 29.08-9.587v-41.543z"/></svg>