<svg clip-rule="evenodd" fill-rule="evenodd" stroke-linejoin="round" stroke-miterlimit="2" viewBox="0 0 500 500" xmlns="http://www.w3.org/2000/svg"><path d="m91.373 445.593c-20.001-36.604-31.373-78.586-31.373-123.203 0-52.63 15.823-101.593 42.968-142.387v133.752h63.982v-91.49c13.793-13.196 28.351-23.992 43.676-32.389s29.756-12.595 43.293-12.595c5.875 0 12.644 1.222 20.306 3.668 7.663 2.445 11.494 10.68 11.494 24.706v108.1h61.3v-87.892c16.091-17.347 31.927-29.781 47.507-37.302 15.581-7.52 30.139-11.28 43.677-11.28 5.619 0 10.791.83 15.516 2.491s7.854 4.129 9.387 7.405c1.532 3.276 2.298 9.389 2.298 18.34v108.238h63.982v-119.726c0-17.256-6.64-28.767-19.922-34.534s-29.373-8.651-48.274-8.651c-17.113 0-32.182 1.776-45.209 5.329-13.026 3.552-25.669 8.328-37.929 14.326-12.26 5.997-22.604 13.841-31.033 23.53v-8.582c0-11.073-6.513-19.608-19.54-25.606-13.026-5.998-30.139-8.997-51.338-8.997-17.88 0-35.503 2.93-52.872 8.789-17.368 5.86-36.141 16.494-56.319 31.904v-36.264h-45.295c47.245-55.301 117.48-90.383 195.845-90.383 142.118 0 257.5 115.382 257.5 257.5 0 54.218-16.793 104.545-45.457 146.058-.063-1.922-.094-3.875-.094-5.86v-140.129h-60.685c-6.99-.346-12.285-.635-15.886-.866-23.088-1.385-40.457-2.078-52.107-2.078-39.609 0-72.918 5.254-99.924 15.762-27.007 10.508-48.506 24.769-64.498 42.783-15.992 18.015-23.988 38.511-23.988 61.491 0 29.215 12.073 50.982 36.22 65.301s51.472 21.478 81.973 21.478c21.605 0 45.382-4.215 71.329-12.644 25.947-8.43 48.241-20.901 66.881-37.414 2.753 18.822 6.46 33.661 11.12 44.516l1.698-.001c-44.566 36.909-101.752 59.103-164.082 59.103-78.662 0-149.132-35.348-196.381-91.012 8.324-9.793 16.557-19.646 24.791-29.498 1.82-2.18 3.51-4.43 5.33-6.61 8.37-10.01 16.86-19.95 25.06-30.05 1.41-1.74 1.65-4.1 2.49-6.32 3.8-.68 8.09-1.28 12.27-2.23 9.38-2.13 17.56-6.06 23.73-12.23 5.84-5.83 10.16-12.46 13.05-19.67 4.35-10.86 8.49-21.79 13.19-32.55 3.84-8.78 9.9-16.46 19.43-21.96 4.47-2.58 9.03-5.02 14.31-6.47 3.88-1.07 5.13-4.08 2.7-6.16-.88-.76-2.47-1.37-3.73-1.37-18.64-.02-37.26.31-55.81 2.04-11.78 1.1-23.51 2.5-34.71 5.74-14.48 4.19-27.56 10.28-36.61 20.83-6.61 7.71-10.74 16.35-12.48 25.66-1.19 6.37-1.9 12.8-2.91 19.49-2.39.16-3.84 1.59-5.02 3.45-5.92 9.34-11.93 18.64-17.88 27.96-4 6.27-7.96 12.56-11.95 18.83-1.665 2.611-3.331 5.221-4.997 7.833zm24.195 36.516c-6.974-8.803-13.386-18.072-19.18-27.752.368-.601.74-1.201 1.122-1.797 6.65-10.41 13.34-20.81 20-31.22 4.08-6.37 8.13-12.76 12.17-19.15 1.28-2.01 2.41-4.1 3.79-6.06.38-.53 1.49-1.12 2.17-1.05 6.75.69 12.96 2.56 18.22 6.2 3.27 2.26 6.57 4.5 9.68 6.9 1.34 1.03 2.3 2.42 3.3 3.72 2.43 3.15 2.61 6.22-.38 9.3-2.05 2.12-3.82 4.43-5.7 6.66-8.26 9.85-16.52 19.69-24.76 29.55-5.31 6.35-10.6 12.71-15.87 19.08-1.54 1.865-3.056 3.739-4.562 5.619zm116.902-159.799c7.13-.45 14.28-.62 20.63-.87-1.6 1.59-3.28 3.49-5.25 5.15-5.72 4.83-10.5 10.25-13.52 16.46-3.52 7.23-6.38 14.69-9.45 22.07-2.47 5.93-4.72 11.93-7.28 17.83-3.21 7.4-8.48 13.78-15.94 18.67-7.2 4.72-15.94 6.52-25.04 7.07-.64.04-1.51-.55-2-1.04-2.61-2.61-4.83-5.53-7.75-7.87-6.67-5.34-14.62-9.07-23.61-11.19-1.83-.43-2.29-1.04-2.21-2.54.4-7.71 1.51-15.31 3.88-22.8 2.54-8.04 7.32-15.06 14.05-21.17 5.01-4.55 11.41-7.59 18.15-10.18 11.08-4.26 23.04-5.95 34.9-7.81 6.71-1.05 13.61-1.36 20.44-1.78zm236.294 114.643c-18.216 17.667-38.709 31.698-61.48 42.09-22.77 10.393-43.581 15.589-62.432 15.589-17.369 0-32.832-4.994-46.388-14.982-13.556-9.989-20.334-24.799-20.334-44.429 0-27.137 12.444-48.587 37.332-64.349 24.889-15.762 55.973-23.643 93.252-23.643 18.428 0 38.445 1.559 60.05 4.676z" fill="#f60" transform="matrix(.970874 0 0 .970874 -58.2524 -62.9996)"/></svg>